<?xml version="1.0" encoding="UTF-8" standalone="no"?>
<svg
   xmlns:osb="http://www.openswatchbook.org/uri/2009/osb"
   xmlns:dc="http://purl.org/dc/elements/1.1/"
   xmlns:cc="http://creativecommons.org/ns#"
   xmlns:rdf="http://www.w3.org/1999/02/22-rdf-syntax-ns#"
   xmlns:svg="http://www.w3.org/2000/svg"
   xmlns="http://www.w3.org/2000/svg"
   xmlns:sodipodi="http://sodipodi.sourceforge.net/DTD/sodipodi-0.dtd"
   xmlns:inkscape="http://www.inkscape.org/namespaces/inkscape"
   width="140.74118mm"
   height="63.774921mm"
   viewBox="0 0 140.74118 63.774921"
   version="1.1"
   id="svg8"
   inkscape:version="1.0.2 (e86c8708, 2021-01-15)"
   sodipodi:docname="guitar_head.svg">
  <defs
     id="defs2">
    <linearGradient
       id="linearGradient5600"
       osb:paint="solid">
      <stop
         style="stop-color:#000000;stop-opacity:1;"
         offset="0"
         id="stop5598" />
    </linearGradient>
  </defs>
  <sodipodi:namedview
     id="base"
     pagecolor="#ffffff"
     bordercolor="#666666"
     borderopacity="1.0"
     inkscape:pageopacity="0.0"
     inkscape:pageshadow="2"
     inkscape:zoom="0.77415123"
     inkscape:cx="308.02583"
     inkscape:cy="80.437637"
     inkscape:document-units="mm"
     inkscape:current-layer="layer1"
     inkscape:document-rotation="0"
     showgrid="false"
     inkscape:window-width="1252"
     inkscape:window-height="1035"
     inkscape:window-x="730"
     inkscape:window-y="23"
     inkscape:window-maximized="0" />
  <metadata
     id="metadata5">
    <rdf:RDF>
      <cc:Work
         rdf:about="">
        <dc:format>image/svg+xml</dc:format>
        <dc:type
           rdf:resource="http://purl.org/dc/dcmitype/StillImage" />
        <dc:title />
      </cc:Work>
    </rdf:RDF>
  </metadata>
  <g
     inkscape:label="레이어 1"
     inkscape:groupmode="layer"
     id="layer1"
     transform="translate(9.4795137,-114.2302)">
    <path
       style="opacity:1;fill:#e78234;fill-opacity:1;stroke:#e78234;stroke-width:1.7;stroke-miterlimit:4;stroke-dasharray:3.4, 1.7;stroke-dashoffset:0;stroke-opacity:0"
       d="m 112.00633,177.00252 c -1.03386,-0.16751 -3.11909,-0.91298 -4.63384,-1.65661 -3.40242,-1.67033 -7.04759,-5.18897 -9.549707,-9.21822 -1.363548,-2.19577 -1.846984,-2.72266 -2.392404,-2.60745 -0.37595,0.0794 -16.678482,3.0818 -36.227848,6.67196 -19.549366,3.59016 -35.732675,6.59285 -35.962904,6.67264 -0.230233,0.0798 -1.275723,-0.99378 -2.323315,-2.3857 -4.278145,-5.68432 -9.227232,-9.22757 -16.0975536,-11.52488 -2.8765606,-0.96186 -11.925942,-3.00489 -13.3098655,-3.00489 -0.081474,0 -0.143819,-6.26725 -0.1385456,-13.92722 l 0.00959,-13.92721 3.8157035,-1.84835 c 3.2434673,-1.57116 4.20404236,-2.23747 6.4051825,-4.44304 2.215859,-2.22031 2.8717848,-3.17412 4.5460443,-6.61051 1.0761081,-2.20871 2.0448006,-4.01583 2.1526527,-4.01583 0.4383431,0 116.2202497,32.83775 116.6941497,33.09648 0.97776,0.53381 3.69526,4.45775 4.4588,6.43828 1.13912,2.95476 1.2972,7.24376 0.37846,10.26851 -2.41283,7.9437 -10.27349,13.24543 -17.8246,12.02204 z"
       id="path12" />
    <ellipse
       style="fill:#ffffff;fill-opacity:1;stroke:none;stroke-width:0.21367;stroke-opacity:1"
       id="ellipse839"
       cx="20.848099"
       cy="127.48101"
       rx="3.4177215"
       ry="3.0759492" />
    <ellipse
       style="fill:#ffffff;fill-opacity:1;stroke:none;stroke-width:0.21367;stroke-opacity:1"
       id="ellipse839-7"
       cx="37.93671"
       cy="132.60759"
       rx="3.4177215"
       ry="3.0759492" />
    <ellipse
       style="fill:#ffffff;fill-opacity:1;stroke:none;stroke-width:0.21367;stroke-opacity:1"
       id="ellipse839-3"
       cx="54.683544"
       cy="137.05063"
       rx="3.4177215"
       ry="3.0759492" />
    <ellipse
       style="fill:#ffffff;fill-opacity:1;stroke:none;stroke-width:0.21367;stroke-opacity:1"
       id="ellipse839-79"
       cx="71.430374"
       cy="141.83545"
       rx="3.4177215"
       ry="3.0759492" />
    <ellipse
       style="fill:#ffffff;fill-opacity:1;stroke:none;stroke-width:0.21367;stroke-opacity:1"
       id="ellipse839-0"
       cx="88.518982"
       cy="146.27849"
       rx="3.4177215"
       ry="3.0759492" />
    <ellipse
       style="fill:#ffffff;fill-opacity:1;stroke:none;stroke-width:0.21367;stroke-opacity:1"
       id="ellipse839-2"
       cx="104.58228"
       cy="151.40506"
       rx="3.4177215"
       ry="3.0759492" />
  </g>
</svg>
